General                          : ChattChitto RG - Movies [R2L]
==========
Complete name                    : The Rite 2011 720p BRRip H264 [ChattChitto RG]
Format                           : MPEG-4
Format profile                   : Base Media
Codec ID                         : isom
File size                        : 2.18 GiB
Duration                         : 1h 53mn
Overall bit rate                 : 2 745 Kbps
Encoded date                     : UTC 2011-04-29 19:15:05

Video
==========
ID                               : 1
Format                           : AVC
Format/Info                      : Advanced Video Codec
Format profile                   : High@L4.1
Format settings, CABAC           : Yes
Format settings, ReFrames        : 4 frames
Format settings, GOP             : M=1, N=51
Codec ID                         : avc1
Codec ID/Info                    : Advanced Video Coding
Duration                         : 1h 53mn
Bit rate mode                    : Variable
Bit rate                         : 2 400 Kbps
Maximum bit rate                 : 18.2 Mbps
Width                            : 1 280 pixels
Height                           : 528 pixels
Display aspect ratio             : 2.40:1
Frame rate mode                  : Constant
Frame rate                       : 23.976 fps
Color space                      : YUV
Chroma subsampling               : 4:2:0
Bit depth                        : 8 bits
Scan type                        : Progressive
Bits/(Pixel*Frame)               : 0.148
Stream size                      : 1.90 GiB (87%)
Writing library                  : x264 core 114 r1924 08d04a4
Encoded date                     : UTC 2011-04-29 10:37:00

Audio
==========
ID                               : 2
Format                           : AAC
Format/Info                      : Advanced Audio Codec
Format profile                   : LC
Codec ID                         : 40
Duration                         : 1h 53mn
Bit rate mode                    : Variable
Bit rate                         : 344 Kbps
Maximum bit rate                 : 446 Kbps
Channel(s)                       : 6 channels
Channel positions                : Front: L C R, Side: L R, LFE
Sampling rate                    : 48.0 KHz
Compression mode                 : Lossy
Stream size                      : 280 MiB (13%)
Encoded date                     : UTC 2011-04-29 19:15:36

Subtitles                        : English | French | Spanish


----------------------------------------------------
IMDB Link: http://www.imdb.com/title/tt1161864/
----------------------------------------------------



Screen Shots:
==============    
http://www.chattchitto.net/chattchittorg/movies/brrip/2011/the_rite/1.png 
http://www.chattchitto.net/chattchittorg/movies/brrip/2011/the_rite/2.png 
http://www.chattchitto.net/chattchittorg/movies/brrip/2011/the_rite/3.png 
http://www.chattchitto.net/chattchittorg/movies/brrip/2011/the_rite/4.png 
http://www.chattchitto.net/chattchittorg/movies/brrip/2011/the_rite/5.png 
http://www.chattchitto.net/chattchittorg/movies/brrip/2011/the_rite/6.png 
http://www.chattchitto.net/chattchittorg/movies/brrip/2011/the_rite/7.png



ScreenShots Comparison:
=========================  
http://screenshotcomparison.com/comparison/47692



Plot:
======
An American seminary student travels to Italy to take an exorcism course.



Release Info:
==============
original name .... : The Rite 2011 720p BRRip H264 [ChattChitto RG]
ripper.............: CHD
encoder............: Recalled2Life (R2L)
video codec........: H264/.MP4
video bitrate......: 2400
audio codec........: AAC-LC
aspect ratio.......: 2.40:1
resolution.........: 1280 x 528
genre..............: Drama | Horror | Thriller
runtime............: 1h 53mn
language...........: English
rating.............: PG-13
subtitles..........: English | French | Spanish
sample.............: Yes
2ch Audio..........: 2ch Audio for XBox Viewers
Compatibility .....: XBox | PS3 | WD Live



Source:
========
The.Rite.2011.BluRay.1080p.DTS.x264-CHD  THANKS!



Notes:
=======
ChattChitto RG Encourages Burning this Film with ConvertXtoDVD and Playing with VLC media player.
XBox 360 | PS3 | WD Live - Compatible 
Enhanced for your viewing pleasure ;)